<?xml version="1.0" encoding="utf-8"?>
<svg version="1.1" id="Layer_1" x="0px" y="0px" viewBox="0 0 92 90" style="enable-background:new 0 0 92 90;" xmlns="http://www.w3.org/2000/svg">
  <style type="text/css">
	.st0{fill:#EE7C6B;}
</style>
  <g>
    <path class="st0" d="M 92 44.5 C 92 44.1 91.9 43.7 91.9 43.1 C 91.8 41.7 91.6 39.7 91.3 37.8 C 88.7 23.3 79.7 11.3 66.7 4.8 C 53.5 -1.7 38.3 -1.6 25.1 5 C 7 14.1 -2.8 33.8 0.7 53.9 C 2.5 64.2 7.7 73.3 16.1 80.8 C 17.1 81.7 18 81.7 19 81 C 19.3 80.8 19.6 80.5 19.9 80.3 C 20.4 79.9 21 79.5 21.5 79.1 C 24.3 76.5 24.8 73.5 22.8 70.3 C 22.2 69.3 21.5 68.4 20.8 67.6 C 20.6 67.3 20.4 67.1 20.2 66.8 C 13.3 57.9 11.2 48.1 13.9 37.6 C 18.3 20.5 35.5 9.9 53 13.5 C 68.3 16.7 79.4 30.3 79.3 45.9 C 79.3 53.9 76.6 61.2 71.3 67.5 C 70.2 68.8 69.4 70 68.8 71.3 C 67.5 73.9 68 76.6 70.1 78.7 C 70.7 79.3 71.4 79.8 72 80.2 C 72.3 80.5 72.7 80.7 73 81 C 73.4 81.4 73.9 81.5 74.3 81.5 C 74.8 81.5 75.4 81.3 75.9 80.8 C 86.6 71.2 91.8 59.4 92 44.6 L 92 44.5 Z"/>
    <path class="st0" d="M 68.3 84.4 L 67.2 83.6 C 62.8 80.5 61 74.8 62.9 69.9 C 63.7 67.8 65.2 66.1 66.7 64.3 L 67 64 C 72.7 57.4 74.9 49.7 73.4 41.2 C 70.7 26 57 16.2 41.5 18.6 C 33.7 19.8 26.8 24.3 22.5 31 C 18.2 37.7 17 45.9 19.2 53.5 C 20.4 57.8 22.7 61.7 26.2 65.5 C 28.9 68.4 30.1 71.8 29.8 75.2 C 29.4 78.6 27.4 81.7 24.2 84 C 24.1 84.1 24 84.2 23.8 84.3 L 23.6 84.5 C 23.4 84.7 23.2 85 23.3 85.4 C 23.4 85.8 23.5 86 23.8 86.2 C 27 88 30.2 89.2 33.4 90.1 C 34.2 90.3 35 89.8 35.4 89.5 C 39.9 85.8 42.3 81.1 42.5 75.5 C 42.8 69 40.7 63 36.4 57.8 C 36.1 57.4 35.8 57.1 35.5 56.7 C 34.9 56 34.4 55.4 33.9 54.7 C 31.5 51.5 30.6 47.8 31.2 43.8 C 31.9 39.6 34.2 36 37.7 33.6 C 41.2 31.3 45.7 30.5 49.8 31.6 C 56.9 33.4 61.7 40 61.1 47.4 C 60.8 50.8 59.4 53.8 56.8 56.6 C 52.6 61.1 50.2 66.4 49.7 72.2 C 49.1 79.1 51.4 84.9 56.7 89.5 C 57.2 90 57.8 90.2 58.4 90.2 C 58.7 90.2 59 90.1 59.4 90 C 60.1 89.7 60.8 89.5 61.4 89.3 C 62.6 88.9 63.7 88.5 64.9 88 C 65.7 87.7 66.5 87.3 67.3 86.9 C 67.7 86.7 68 86.5 68.4 86.3 C 68.7 86.1 68.9 85.8 69 85.5 C 69.1 85.2 68.6 84.6 68.3 84.4 Z"/>
    <path class="st0" d="M 55.7 46.4 C 55.7 43.8 54.8 41.4 52.9 39.5 C 51 37.6 48.5 36.5 45.9 36.5 L 45.9 36.5 C 40.5 36.5 36.2 40.9 36.1 46.2 C 36.1 48.8 37.1 51.3 38.9 53.2 C 40.7 55.1 43.2 56.1 45.8 56.1 L 45.8 56.1 C 51.3 56.2 55.6 51.9 55.7 46.4 Z"/>
  </g>
</svg>
